<svg width="60" height="60" viewBox="0 0 60 60" fill="none" xmlns="http://www.w3.org/2000/svg">
<path fill-rule="evenodd" clip-rule="evenodd" d="M30.0001 0.666504C13.8001 0.666504 0.666748 13.7998 0.666748 29.9998C0.666748 46.1998 13.8001 59.3332 30.0001 59.3332C46.2001 59.3332 59.3334 46.1998 59.3334 29.9998C59.3334 13.7998 46.2001 0.666504 30.0001 0.666504ZM42.7147 25.0398C42.9489 24.7722 43.1271 24.4605 43.239 24.123C43.3508 23.7854 43.3941 23.4289 43.3661 23.0745C43.3382 22.72 43.2397 22.3747 43.0763 22.0588C42.9129 21.743 42.688 21.4631 42.4149 21.2354C42.1417 21.0078 41.8258 20.8371 41.4857 20.7333C41.1456 20.6296 40.7881 20.5949 40.4344 20.6314C40.0807 20.6678 39.7379 20.7746 39.4261 20.9455C39.1143 21.1164 38.8398 21.348 38.6188 21.6265L27.1521 35.3838L21.2187 29.4478C20.7158 28.9621 20.0422 28.6933 19.343 28.6994C18.6438 28.7055 17.975 28.9859 17.4806 29.4803C16.9861 29.9747 16.7057 30.6436 16.6996 31.3428C16.6935 32.042 16.9623 32.7156 17.4481 33.2185L25.4481 41.2185C25.7101 41.4804 26.0238 41.6848 26.3692 41.8187C26.7146 41.9526 27.0841 42.013 27.4541 41.9962C27.8242 41.9794 28.1867 41.8857 28.5185 41.721C28.8503 41.5564 29.1442 41.3244 29.3814 41.0398L42.7147 25.0398Z" fill="#00A389"/>
</svg>
