<svg width="49" height="48" viewBox="0 0 49 48" fill="none" xmlns="http://www.w3.org/2000/svg">
<circle cx="24.4775" cy="24" r="24" fill="#0F296D"/>
<path d="M25.4775 26H21.4775C21.2123 26 20.958 26.1054 20.7704 26.2929C20.5829 26.4804 20.4775 26.7348 20.4775 27C20.4775 27.2652 20.5829 27.5196 20.7704 27.7071C20.958 27.8946 21.2123 28 21.4775 28H25.4775C25.7428 28 25.9971 27.8946 26.1846 27.7071C26.3722 27.5196 26.4775 27.2652 26.4775 27C26.4775 26.7348 26.3722 26.4804 26.1846 26.2929C25.9971 26.1054 25.7428 26 25.4775 26ZM29.4775 16H28.2975C28.0912 15.4165 27.7095 14.911 27.2046 14.5529C26.6997 14.1949 26.0965 14.0017 25.4775 14H23.4775C22.8586 14.0017 22.2553 14.1949 21.7505 14.5529C21.2456 14.911 20.8639 15.4165 20.6575 16H19.4775C18.6819 16 17.9188 16.3161 17.3562 16.8787C16.7936 17.4413 16.4775 18.2044 16.4775 19V31C16.4775 31.7956 16.7936 32.5587 17.3562 33.1213C17.9188 33.6839 18.6819 34 19.4775 34H29.4775C30.2732 34 31.0363 33.6839 31.5989 33.1213C32.1615 32.5587 32.4775 31.7956 32.4775 31V19C32.4775 18.2044 32.1615 17.4413 31.5989 16.8787C31.0363 16.3161 30.2732 16 29.4775 16ZM22.4775 17C22.4775 16.7348 22.5829 16.4804 22.7704 16.2929C22.958 16.1054 23.2123 16 23.4775 16H25.4775C25.7428 16 25.9971 16.1054 26.1846 16.2929C26.3722 16.4804 26.4775 16.7348 26.4775 17V18H22.4775V17ZM30.4775 31C30.4775 31.2652 30.3722 31.5196 30.1846 31.7071C29.9971 31.8946 29.7428 32 29.4775 32H19.4775C19.2123 32 18.958 31.8946 18.7704 31.7071C18.5829 31.5196 18.4775 31.2652 18.4775 31V19C18.4775 18.7348 18.5829 18.4804 18.7704 18.2929C18.958 18.1054 19.2123 18 19.4775 18H20.4775V19C20.4775 19.2652 20.5829 19.5196 20.7704 19.7071C20.958 19.8946 21.2123 20 21.4775 20H27.4775C27.7428 20 27.9971 19.8946 28.1846 19.7071C28.3722 19.5196 28.4775 19.2652 28.4775 19V18H29.4775C29.7428 18 29.9971 18.1054 30.1846 18.2929C30.3722 18.4804 30.4775 18.7348 30.4775 19V31ZM27.4775 22H21.4775C21.2123 22 20.958 22.1054 20.7704 22.2929C20.5829 22.4804 20.4775 22.7348 20.4775 23C20.4775 23.2652 20.5829 23.5196 20.7704 23.7071C20.958 23.8946 21.2123 24 21.4775 24H27.4775C27.7428 24 27.9971 23.8946 28.1846 23.7071C28.3722 23.5196 28.4775 23.2652 28.4775 23C28.4775 22.7348 28.3722 22.4804 28.1846 22.2929C27.9971 22.1054 27.7428 22 27.4775 22Z" fill="white"/>
</svg>
