<svg width="192" height="62" viewBox="0 0 192 62" fill="none" xmlns="http://www.w3.org/2000/svg">
<path d="M55.7844 41.9542V51.6155H54.5381V41.9542H55.7844Z" fill="#4D4C4A"/>
<path d="M58.0626 46.5553C58.0626 45.8382 58.0485 45.2504 58.0061 44.6767H59.1251L59.1958 45.824H59.2241C59.5675 45.1655 60.3714 44.5192 61.5167 44.5192C62.4762 44.5192 63.9689 45.0928 63.9689 47.4723V51.6152H62.7065V47.6157C62.7065 46.4967 62.2904 45.5655 61.1006 45.5655C60.2684 45.5655 59.624 46.1533 59.4099 46.8562C59.3534 47.0138 59.3231 47.2299 59.3231 47.444V51.6152H58.0606V46.5553H58.0626Z" fill="#4D4C4A"/>
<path d="M66.0196 46.5553C66.0196 45.8382 66.0054 45.2504 65.963 44.6767H67.0821L67.1528 45.824H67.181C67.5244 45.1655 68.3284 44.5192 69.4737 44.5192C70.4331 44.5192 71.9258 45.0928 71.9258 47.4723V51.6152H70.6634V47.6157C70.6634 46.4967 70.2473 45.5655 69.0575 45.5655C68.2253 45.5655 67.581 46.1533 67.3669 46.8562C67.3103 47.0138 67.28 47.2299 67.28 47.444V51.6152H66.0175V46.5553H66.0196Z" fill="#4D4C4A"/>
<path d="M80.2539 48.0884C80.2539 50.6537 78.4764 51.7727 76.7999 51.7727C74.9213 51.7727 73.475 50.3972 73.475 48.2035C73.475 45.8806 74.994 44.5192 76.915 44.5192C78.9066 44.5192 80.2539 45.9675 80.2539 48.0884ZM74.7496 48.1611C74.7496 49.6801 75.6243 50.8274 76.8564 50.8274C78.0603 50.8274 78.9632 49.6942 78.9632 48.1328C78.9632 46.9572 78.3754 45.4665 76.8847 45.4665C75.394 45.4665 74.7496 46.8421 74.7496 48.1611Z" fill="#4D4C4A"/>
<path d="M82.2311 44.6769L83.5926 48.5753C83.8228 49.2056 84.0087 49.7792 84.1521 50.3529H84.1945C84.3521 49.7792 84.552 49.2056 84.7823 48.5753L86.1296 44.6769H87.4486L84.7258 51.6153H83.5219L80.8838 44.6769H82.2311Z" fill="#4D4C4A"/>
<path d="M92.4215 51.6155L92.3205 50.7408H92.2781C91.8903 51.2862 91.1449 51.773 90.1572 51.773C88.7513 51.773 88.0363 50.7833 88.0363 49.7814C88.0363 48.1048 89.527 47.1858 92.2074 47.2019V47.0585C92.2074 46.4849 92.0499 45.4527 90.6299 45.4527C89.9855 45.4527 89.3108 45.6526 88.824 45.9698L88.5372 45.1376C89.1109 44.7639 89.9431 44.5215 90.8157 44.5215C92.9366 44.5215 93.4537 45.9698 93.4537 47.3595V49.9551C93.4537 50.557 93.482 51.1448 93.5689 51.6175H92.4215V51.6155ZM92.2357 48.0745C90.8601 48.0463 89.2967 48.2887 89.2967 49.638C89.2967 50.454 89.8421 50.8418 90.4864 50.8418C91.3893 50.8418 91.963 50.2682 92.163 49.6804C92.2054 49.5511 92.2337 49.4077 92.2337 49.2784V48.0745H92.2357Z" fill="#4D4C4A"/>
<path d="M96.9522 42.6862V44.6778H98.758V45.6373H96.9522V49.3782C96.9522 50.2387 97.1966 50.7255 97.8976 50.7255C98.2268 50.7255 98.4712 50.6831 98.6288 50.6386L98.6853 51.5839C98.4409 51.6849 98.0551 51.7556 97.5663 51.7556C96.9785 51.7556 96.5058 51.5698 96.2049 51.2244C95.8473 50.8507 95.718 50.2346 95.718 49.4186V45.6332H94.6434V44.6738H95.718V43.0114L96.9522 42.6862Z" fill="#4D4C4A"/>
<path d="M101.582 42.7281C101.596 43.1583 101.281 43.5017 100.78 43.5017C100.335 43.5017 100.02 43.1583 100.02 42.7281C100.02 42.2837 100.35 41.9403 100.808 41.9403C101.281 41.9403 101.582 42.2837 101.582 42.7281ZM100.176 51.6158V44.6773H101.438V51.6158H100.176Z" fill="#4D4C4A"/>
<path d="M109.81 48.0884C109.81 50.6537 108.032 51.7727 106.356 51.7727C104.477 51.7727 103.031 50.3972 103.031 48.2035C103.031 45.8806 104.55 44.5192 106.471 44.5192C108.462 44.5192 109.81 45.9675 109.81 48.0884ZM104.305 48.1611C104.305 49.6801 105.18 50.8274 106.412 50.8274C107.616 50.8274 108.519 49.6942 108.519 48.1328C108.519 46.9572 107.931 45.4665 106.44 45.4665C104.95 45.4665 104.305 46.8421 104.305 48.1611Z" fill="#4D4C4A"/>
<path d="M111.401 46.5553C111.401 45.8382 111.387 45.2504 111.344 44.6767H112.463L112.534 45.824H112.562C112.906 45.1655 113.71 44.5192 114.857 44.5192C115.817 44.5192 117.309 45.0928 117.309 47.4723V51.6152H116.047V47.6157C116.047 46.4967 115.631 45.5655 114.441 45.5655C113.609 45.5655 112.964 46.1533 112.75 46.8562C112.694 47.0138 112.663 47.2299 112.663 47.444V51.6152H111.401V46.5553Z" fill="#4D4C4A"/>
<path d="M119.184 50.3265C119.555 50.5709 120.216 50.8274 120.846 50.8274C121.763 50.8274 122.193 50.3689 122.193 49.7952C122.193 49.1933 121.836 48.864 120.903 48.5186C119.656 48.0742 119.069 47.3854 119.069 46.5553C119.069 45.4362 119.972 44.5192 121.462 44.5192C122.165 44.5192 122.781 44.7191 123.169 44.9494L122.854 45.8665C122.581 45.6948 122.08 45.4645 121.434 45.4645C120.689 45.4645 120.272 45.8947 120.272 46.4098C120.272 46.9835 120.689 47.242 121.591 47.5854C122.795 48.0439 123.411 48.6459 123.411 49.6781C123.411 50.8961 122.466 51.7566 120.818 51.7566C120.058 51.7566 119.355 51.5707 118.869 51.2839L119.184 50.3265Z" fill="#4D4C4A"/>
<path d="M128.201 51.6156V45.6387H127.225V44.6792H128.201V44.3499C128.201 43.3743 128.415 42.4855 129.003 41.928C129.475 41.4695 130.106 41.2837 130.693 41.2837C131.138 41.2837 131.526 41.3847 131.768 41.4837L131.596 42.4593C131.41 42.3724 131.152 42.3017 130.794 42.3017C129.72 42.3017 129.447 43.2471 129.447 44.3095V44.6832H131.124V45.6427H129.447V51.6197H128.201V51.6156Z" fill="#4D4C4A"/>
<path d="M138.349 48.0884C138.349 50.6537 136.572 51.7727 134.895 51.7727C133.017 51.7727 131.57 50.3972 131.57 48.2035C131.57 45.8806 133.089 44.5192 135.01 44.5192C137.002 44.5192 138.349 45.9675 138.349 48.0884ZM132.845 48.1611C132.845 49.6801 133.719 50.8274 134.952 50.8274C136.155 50.8274 137.058 49.6942 137.058 48.1328C137.058 46.9572 136.471 45.4665 134.98 45.4665C133.489 45.4665 132.845 46.8421 132.845 48.1611Z" fill="#4D4C4A"/>
<path d="M139.939 46.8421C139.939 46.024 139.925 45.3231 139.882 44.6767H140.985L141.027 46.0382H141.084C141.399 45.107 142.159 44.5192 143.005 44.5192C143.148 44.5192 143.249 44.5333 143.362 44.5616V45.7513C143.233 45.723 143.104 45.7089 142.932 45.7089C142.043 45.7089 141.413 46.3836 141.242 47.3289C141.213 47.5006 141.185 47.7026 141.185 47.9167V51.6152H139.939V46.8421Z" fill="#4D4C4A"/>
<path d="M147.709 41.9542H148.955V50.5692H153.084V51.6155H147.709V41.9542Z" fill="#4D4C4A"/>
<path d="M155.835 42.7281C155.85 43.1583 155.534 43.5017 155.033 43.5017C154.589 43.5017 154.274 43.1583 154.274 42.7281C154.274 42.2837 154.603 41.9403 155.062 41.9403C155.534 41.9403 155.835 42.2837 155.835 42.7281ZM154.432 51.6158V44.6773H155.694V51.6158H154.432Z" fill="#4D4C4A"/>
<path d="M157.914 51.6156V45.6387H156.939V44.6792H157.914V44.3499C157.914 43.3743 158.128 42.4855 158.716 41.928C159.189 41.4695 159.819 41.2837 160.407 41.2837C160.851 41.2837 161.239 41.3847 161.481 41.4837L161.31 42.4593C161.124 42.3724 160.865 42.3017 160.508 42.3017C159.433 42.3017 159.161 43.2471 159.161 44.3095V44.6832H160.837V45.6427H159.161V51.6197H157.914V51.6156Z" fill="#4D4C4A"/>
<path d="M162.487 48.3752C162.516 50.0821 163.606 50.783 164.867 50.783C165.77 50.783 166.315 50.6254 166.788 50.4254L167.002 51.3283C166.557 51.5283 165.798 51.7586 164.693 51.7586C162.558 51.7586 161.281 50.3547 161.281 48.2601C161.281 46.1674 162.514 44.5192 164.535 44.5192C166.8 44.5192 167.402 46.5108 167.402 47.7874C167.402 48.046 167.373 48.2459 167.359 48.3752H162.487ZM166.186 47.4723C166.2 46.6704 165.857 45.4221 164.437 45.4221C163.16 45.4221 162.602 46.5977 162.501 47.4723H166.186Z" fill="#4D4C4A"/>
<path d="M166.796 14.2144C168.066 14.2144 170.161 14.2144 170.161 14.2144C170.161 14.2144 170.179 24.6453 170.137 29.8203C170.08 30.8707 169.622 31.7918 169.123 32.6422C167.087 36.1124 161.459 37.6415 156.205 36.2397C152.139 35.1529 149.895 32.0786 149.885 27.5398C149.875 23.1485 149.883 18.7572 149.883 14.2527C151.628 14.2527 153.192 14.2527 155.092 14.2527C155.092 15.4021 155.092 16.5959 155.092 17.7896C155.092 21.3306 155.034 24.8715 155.111 28.4104C155.191 32.1129 157.619 34.5651 161.013 34.5389C164.309 34.5126 166.699 32.115 166.772 28.4993C166.869 23.8131 166.796 19.1228 166.796 14.2144Z" fill="#018BB9"/>
<path d="M181.141 26.6714C181.141 30.0224 181.141 32.9776 181.141 36.1044C179.307 36.1044 177.55 36.1044 175.643 36.1044C175.643 28.8993 175.643 13.9983 175.643 13.9983C175.643 13.9983 182.7 13.7216 186.153 14.2145C190.156 14.7881 192.188 17.612 191.986 20.8519C191.798 23.8556 189.098 26.2977 185.433 26.6512C184.09 26.7804 182.725 26.6714 181.141 26.6714ZM181.246 16.4303C181.246 19.0845 181.246 21.7246 181.246 24.405C183.068 24.7706 184.939 24.6979 185.569 22.9082C186.088 21.4337 186.12 19.4905 185.605 18.022C184.993 16.2748 183.111 16.0991 181.246 16.4303Z" fill="#018BB9"/>
<path d="M128.176 30.6325C129.827 30.6325 131.41 30.6325 131.41 30.6325C131.41 30.6325 131.648 31.2829 132.887 32.6787C134.351 34.3269 137.153 35.1349 139.047 33.933C140.536 32.9897 140.859 31.0627 139.49 29.6367C138.468 28.5722 137.108 27.8127 135.842 27.0027C134.085 25.8796 132.107 25.0373 130.523 23.7142C127.752 21.3974 127.99 17.7211 130.814 15.5032C135.759 11.6229 143.411 13.8832 144.873 19.6582C143.083 19.6622 141.633 19.6582 141.633 19.6582C141.633 19.6582 141.261 18.8846 140.601 17.9554C139.878 16.9394 138.595 15.8729 136.628 15.9577C135.137 16.0223 133.747 16.3475 133.149 17.9251C132.523 19.5835 133.42 20.7692 134.693 21.5893C136.385 22.682 138.219 23.5526 139.948 24.5929C141.179 25.3342 142.451 26.0715 143.497 27.035C145.493 28.8751 145.699 31.5273 144.033 33.6745C141.649 36.7448 138.242 36.973 134.775 36.5852C131.584 36.2277 129.233 34.6138 128.301 31.3536C128.265 31.2223 128.205 30.9476 128.176 30.6325Z" fill="#018E86"/>
<path d="M112.272 34.1031C115.928 34.1031 119.444 34.1031 123.086 34.1031C123.086 34.8707 123.086 35.4746 123.086 36.1776C117.738 36.1776 112.49 36.1776 107.097 36.1776C107.097 28.8897 107.097 21.6381 107.097 14.1401C112.159 14.1401 123.068 14.1401 123.068 14.1401V15.8369C123.068 15.8369 115.942 15.8369 112.27 15.8369C112.27 18.3618 112.27 20.6463 112.27 23.2541C114.825 23.2541 121.169 23.2541 121.169 23.2541L121.163 24.9771C121.163 24.9771 115.304 24.9771 112.272 24.9771C112.272 28.0534 112.272 30.9177 112.272 34.1031Z" fill="#018E86"/>
<path d="M86.2228 36.165C86.2228 28.8144 86.2228 21.6093 86.2228 14.2689C91.3838 14.2689 101.574 14.2689 101.574 14.2689V15.8849C101.574 15.8849 94.4096 15.8707 91.3858 15.8707C91.3858 18.3451 91.3858 23.1829 91.3858 23.1829H100.172L100.177 24.9988L91.3858 24.9867C91.3858 24.9867 91.3858 32.416 91.3858 36.165C89.588 36.165 88.0246 36.165 86.2228 36.165Z" fill="#018E86"/>
<path d="M59.198 34.0942C63.1086 34.0942 70.5723 34.0942 70.5723 34.0942V36.1323C70.5723 36.1323 59.6768 36.1323 54.1805 36.1323C54.1805 28.8908 54.1805 21.6918 54.1805 14.313C55.7399 14.313 57.3498 14.313 59.198 14.313C59.198 20.7747 59.198 27.3072 59.198 34.0942Z" fill="#018E86"/>
<path d="M79.9367 36.1772C78.2218 36.1772 76.6604 36.1772 74.9899 36.1772C74.9899 28.8832 74.9899 21.6842 74.9899 14.3094C76.5594 14.3094 78.1713 14.3094 79.9367 14.3094C79.9367 21.5024 79.9367 28.7519 79.9367 36.1772Z" fill="#018E86"/>
<path d="M46.1997 17.8837H11.9558C10.9883 17.8837 10.2046 18.6674 10.2046 19.6349V53.8808C10.2046 54.8484 10.9883 55.6321 11.9558 55.6321H46.2017C47.1693 55.6321 47.953 54.8484 47.953 53.8808V19.6329C47.951 18.6674 47.1672 17.8837 46.1997 17.8837Z" fill="#6BD5D1"/>
<path d="M47.8417 0H38.7076C38.2713 0 37.9158 0.353488 37.9158 0.791812V9.44721C37.9158 9.88351 38.2692 10.239 38.7076 10.239H47.8417C48.278 10.239 48.6335 9.88553 48.6335 9.44721V0.791812C48.6335 0.353488 48.28 0 47.8417 0Z" fill="#19C6C0"/>
<path d="M6.61104 56.0396H1.92077C1.63192 56.0396 1.39962 56.2739 1.39962 56.5607V61.251C1.39962 61.5398 1.63394 61.7721 1.92077 61.7721H6.61104C6.89989 61.7721 7.13218 61.5378 7.13218 61.251V56.5607C7.13218 56.2739 6.89989 56.0396 6.61104 56.0396Z" fill="#00BDF5"/>
<path d="M29.0627 3.68555H1.41395C0.632238 3.68555 0 4.31778 0 5.0995V32.7483C0 33.53 0.632238 34.1622 1.41395 34.1622H29.0627C29.8445 34.1622 30.4767 33.53 30.4767 32.7483V5.0995C30.4767 4.31778 29.8445 3.68555 29.0627 3.68555Z" fill="#00BDF5" fill-opacity="0.85"/>
</svg>
